<mxfile host="app.diagrams.net" modified="2021-06-04T02:30:47.169Z" agent="5.0 (X11; Linux x86_64) AppleWebKit/537.36 (KHTML, like Gecko) Chrome/90.0.4430.93 Safari/537.36" etag="GCcw0fgsOwSuSGSUKB-h" version="14.7.5" type="github">
  <diagram name="Page-1" id="b520641d-4fe3-3701-9064-5fc419738815">
    <mxGraphModel dx="1673" dy="844" grid="1" gridSize="10" guides="1" tooltips="1" connect="1" arrows="1" fold="1" page="1" pageScale="1" pageWidth="1100" pageHeight="850" background="none" math="0" shadow="0">
      <root>
        <mxCell id="0" />
        <mxCell id="1" parent="0" />
        <mxCell id="GwqZMUHpEMJSWZDbbbEn-88" style="edgeStyle=orthogonalEdgeStyle;rounded=0;orthogonalLoop=1;jettySize=auto;html=1;exitX=1;exitY=0.5;exitDx=0;exitDy=0;entryX=0;entryY=0.5;entryDx=0;entryDy=0;" edge="1" parent="1" source="GwqZMUHpEMJSWZDbbbEn-1" target="GwqZMUHpEMJSWZDbbbEn-3">
          <mxGeometry relative="1" as="geometry" />
        </mxCell>
        <mxCell id="GwqZMUHpEMJSWZDbbbEn-1" value="main()" style="ellipse;whiteSpace=wrap;html=1;" vertex="1" parent="1">
          <mxGeometry x="20" y="350" width="120" height="50" as="geometry" />
        </mxCell>
        <mxCell id="GwqZMUHpEMJSWZDbbbEn-87" style="edgeStyle=orthogonalEdgeStyle;rounded=0;orthogonalLoop=1;jettySize=auto;html=1;exitX=1;exitY=0.5;exitDx=0;exitDy=0;entryX=0;entryY=0.5;entryDx=0;entryDy=0;" edge="1" parent="1" source="GwqZMUHpEMJSWZDbbbEn-3" target="GwqZMUHpEMJSWZDbbbEn-60">
          <mxGeometry relative="1" as="geometry" />
        </mxCell>
        <mxCell id="GwqZMUHpEMJSWZDbbbEn-3" value="Initialize Linked List" style="rounded=0;whiteSpace=wrap;html=1;" vertex="1" parent="1">
          <mxGeometry x="170" y="345" width="120" height="60" as="geometry" />
        </mxCell>
        <mxCell id="GwqZMUHpEMJSWZDbbbEn-63" style="edgeStyle=orthogonalEdgeStyle;rounded=0;orthogonalLoop=1;jettySize=auto;html=1;exitX=1;exitY=1;exitDx=0;exitDy=0;" edge="1" parent="1" source="GwqZMUHpEMJSWZDbbbEn-5" target="GwqZMUHpEMJSWZDbbbEn-7">
          <mxGeometry relative="1" as="geometry" />
        </mxCell>
        <mxCell id="GwqZMUHpEMJSWZDbbbEn-89" style="edgeStyle=orthogonalEdgeStyle;rounded=0;orthogonalLoop=1;jettySize=auto;html=1;exitX=1;exitY=0.5;exitDx=0;exitDy=0;" edge="1" parent="1" source="GwqZMUHpEMJSWZDbbbEn-5" target="GwqZMUHpEMJSWZDbbbEn-8">
          <mxGeometry relative="1" as="geometry" />
        </mxCell>
        <mxCell id="GwqZMUHpEMJSWZDbbbEn-91" style="edgeStyle=orthogonalEdgeStyle;rounded=0;orthogonalLoop=1;jettySize=auto;html=1;exitX=0.5;exitY=0;exitDx=0;exitDy=0;" edge="1" parent="1" source="GwqZMUHpEMJSWZDbbbEn-5" target="GwqZMUHpEMJSWZDbbbEn-92">
          <mxGeometry relative="1" as="geometry">
            <mxPoint x="640" y="290" as="targetPoint" />
          </mxGeometry>
        </mxCell>
        <mxCell id="GwqZMUHpEMJSWZDbbbEn-101" style="edgeStyle=orthogonalEdgeStyle;rounded=0;orthogonalLoop=1;jettySize=auto;html=1;exitX=0;exitY=1;exitDx=0;exitDy=0;entryX=0.47;entryY=0;entryDx=0;entryDy=0;entryPerimeter=0;" edge="1" parent="1" source="GwqZMUHpEMJSWZDbbbEn-5" target="GwqZMUHpEMJSWZDbbbEn-9">
          <mxGeometry relative="1" as="geometry" />
        </mxCell>
        <mxCell id="GwqZMUHpEMJSWZDbbbEn-5" value="Switch" style="rhombus;whiteSpace=wrap;html=1;" vertex="1" parent="1">
          <mxGeometry x="540" y="335" width="200" height="80" as="geometry" />
        </mxCell>
        <mxCell id="GwqZMUHpEMJSWZDbbbEn-64" style="edgeStyle=orthogonalEdgeStyle;rounded=0;orthogonalLoop=1;jettySize=auto;html=1;exitX=0.5;exitY=1;exitDx=0;exitDy=0;" edge="1" parent="1" source="GwqZMUHpEMJSWZDbbbEn-7" target="GwqZMUHpEMJSWZDbbbEn-11">
          <mxGeometry relative="1" as="geometry" />
        </mxCell>
        <mxCell id="GwqZMUHpEMJSWZDbbbEn-7" value="CreateNewAccount()" style="rounded=0;whiteSpace=wrap;html=1;" vertex="1" parent="1">
          <mxGeometry x="870" y="478" width="120" height="28" as="geometry" />
        </mxCell>
        <mxCell id="GwqZMUHpEMJSWZDbbbEn-90" style="edgeStyle=orthogonalEdgeStyle;rounded=0;orthogonalLoop=1;jettySize=auto;html=1;exitX=0.5;exitY=0;exitDx=0;exitDy=0;entryX=0.5;entryY=0;entryDx=0;entryDy=0;" edge="1" parent="1" source="GwqZMUHpEMJSWZDbbbEn-8" target="GwqZMUHpEMJSWZDbbbEn-60">
          <mxGeometry relative="1" as="geometry">
            <Array as="points">
              <mxPoint x="910" y="190" />
              <mxPoint x="390" y="190" />
            </Array>
          </mxGeometry>
        </mxCell>
        <mxCell id="GwqZMUHpEMJSWZDbbbEn-8" value="ViewList()" style="rounded=0;whiteSpace=wrap;html=1;" vertex="1" parent="1">
          <mxGeometry x="850" y="290" width="120" height="60" as="geometry" />
        </mxCell>
        <mxCell id="GwqZMUHpEMJSWZDbbbEn-80" style="edgeStyle=orthogonalEdgeStyle;rounded=0;orthogonalLoop=1;jettySize=auto;html=1;exitX=0.5;exitY=1;exitDx=0;exitDy=0;entryX=0.5;entryY=0;entryDx=0;entryDy=0;" edge="1" parent="1" source="GwqZMUHpEMJSWZDbbbEn-9" target="GwqZMUHpEMJSWZDbbbEn-75">
          <mxGeometry relative="1" as="geometry" />
        </mxCell>
        <mxCell id="GwqZMUHpEMJSWZDbbbEn-9" value="EraseAccount()" style="rounded=0;whiteSpace=wrap;html=1;" vertex="1" parent="1">
          <mxGeometry x="490" y="470" width="120" height="30" as="geometry" />
        </mxCell>
        <mxCell id="GwqZMUHpEMJSWZDbbbEn-65" style="edgeStyle=orthogonalEdgeStyle;rounded=0;orthogonalLoop=1;jettySize=auto;html=1;exitX=0.5;exitY=1;exitDx=0;exitDy=0;" edge="1" parent="1" source="GwqZMUHpEMJSWZDbbbEn-11" target="GwqZMUHpEMJSWZDbbbEn-12">
          <mxGeometry relative="1" as="geometry" />
        </mxCell>
        <mxCell id="GwqZMUHpEMJSWZDbbbEn-11" value="Allocate Struct Account" style="rounded=0;whiteSpace=wrap;html=1;" vertex="1" parent="1">
          <mxGeometry x="870" y="526" width="120" height="38" as="geometry" />
        </mxCell>
        <mxCell id="GwqZMUHpEMJSWZDbbbEn-66" style="edgeStyle=orthogonalEdgeStyle;rounded=0;orthogonalLoop=1;jettySize=auto;html=1;exitX=0.5;exitY=1;exitDx=0;exitDy=0;entryX=0.5;entryY=0;entryDx=0;entryDy=0;" edge="1" parent="1" source="GwqZMUHpEMJSWZDbbbEn-12" target="GwqZMUHpEMJSWZDbbbEn-13">
          <mxGeometry relative="1" as="geometry" />
        </mxCell>
        <mxCell id="GwqZMUHpEMJSWZDbbbEn-12" value="Allocate Struct Node" style="rounded=0;whiteSpace=wrap;html=1;" vertex="1" parent="1">
          <mxGeometry x="870" y="586" width="120" height="28" as="geometry" />
        </mxCell>
        <mxCell id="GwqZMUHpEMJSWZDbbbEn-70" style="edgeStyle=orthogonalEdgeStyle;rounded=0;orthogonalLoop=1;jettySize=auto;html=1;exitX=0.5;exitY=1;exitDx=0;exitDy=0;" edge="1" parent="1" source="GwqZMUHpEMJSWZDbbbEn-13" target="GwqZMUHpEMJSWZDbbbEn-14">
          <mxGeometry relative="1" as="geometry" />
        </mxCell>
        <mxCell id="GwqZMUHpEMJSWZDbbbEn-13" value="Put Account into Node" style="rounded=0;whiteSpace=wrap;html=1;" vertex="1" parent="1">
          <mxGeometry x="870" y="646" width="120" height="38" as="geometry" />
        </mxCell>
        <mxCell id="GwqZMUHpEMJSWZDbbbEn-71" style="edgeStyle=orthogonalEdgeStyle;rounded=0;orthogonalLoop=1;jettySize=auto;html=1;exitX=0;exitY=0.5;exitDx=0;exitDy=0;entryX=0.5;entryY=1;entryDx=0;entryDy=0;" edge="1" parent="1" source="GwqZMUHpEMJSWZDbbbEn-14" target="GwqZMUHpEMJSWZDbbbEn-60">
          <mxGeometry relative="1" as="geometry" />
        </mxCell>
        <mxCell id="GwqZMUHpEMJSWZDbbbEn-14" value="Add Node to List" style="rounded=0;whiteSpace=wrap;html=1;" vertex="1" parent="1">
          <mxGeometry x="870" y="706" width="120" height="40" as="geometry" />
        </mxCell>
        <mxCell id="GwqZMUHpEMJSWZDbbbEn-86" style="edgeStyle=orthogonalEdgeStyle;rounded=0;orthogonalLoop=1;jettySize=auto;html=1;exitX=1;exitY=0.5;exitDx=0;exitDy=0;entryX=0;entryY=0.5;entryDx=0;entryDy=0;" edge="1" parent="1" source="GwqZMUHpEMJSWZDbbbEn-60" target="GwqZMUHpEMJSWZDbbbEn-5">
          <mxGeometry relative="1" as="geometry" />
        </mxCell>
        <mxCell id="GwqZMUHpEMJSWZDbbbEn-60" value="Linked List" style="shape=hexagon;perimeter=hexagonPerimeter2;whiteSpace=wrap;html=1;fixedSize=1;" vertex="1" parent="1">
          <mxGeometry x="330" y="335" width="120" height="80" as="geometry" />
        </mxCell>
        <mxCell id="GwqZMUHpEMJSWZDbbbEn-81" style="edgeStyle=orthogonalEdgeStyle;rounded=0;orthogonalLoop=1;jettySize=auto;html=1;exitX=0;exitY=0.5;exitDx=0;exitDy=0;entryX=1;entryY=0.75;entryDx=0;entryDy=0;" edge="1" parent="1" source="GwqZMUHpEMJSWZDbbbEn-75" target="GwqZMUHpEMJSWZDbbbEn-60">
          <mxGeometry relative="1" as="geometry">
            <mxPoint x="432" y="381" as="targetPoint" />
          </mxGeometry>
        </mxCell>
        <mxCell id="GwqZMUHpEMJSWZDbbbEn-82" style="edgeStyle=orthogonalEdgeStyle;rounded=0;orthogonalLoop=1;jettySize=auto;html=1;exitX=0.5;exitY=1;exitDx=0;exitDy=0;entryX=0.5;entryY=0;entryDx=0;entryDy=0;" edge="1" parent="1" source="GwqZMUHpEMJSWZDbbbEn-75" target="GwqZMUHpEMJSWZDbbbEn-77">
          <mxGeometry relative="1" as="geometry" />
        </mxCell>
        <mxCell id="GwqZMUHpEMJSWZDbbbEn-75" value="Search Target Node" style="rounded=0;whiteSpace=wrap;html=1;" vertex="1" parent="1">
          <mxGeometry x="490" y="528" width="120" height="30" as="geometry" />
        </mxCell>
        <mxCell id="GwqZMUHpEMJSWZDbbbEn-76" style="edgeStyle=orthogonalEdgeStyle;rounded=0;orthogonalLoop=1;jettySize=auto;html=1;exitX=0.5;exitY=1;exitDx=0;exitDy=0;" edge="1" parent="1" source="GwqZMUHpEMJSWZDbbbEn-9" target="GwqZMUHpEMJSWZDbbbEn-9">
          <mxGeometry relative="1" as="geometry" />
        </mxCell>
        <mxCell id="GwqZMUHpEMJSWZDbbbEn-84" style="edgeStyle=orthogonalEdgeStyle;rounded=0;orthogonalLoop=1;jettySize=auto;html=1;exitX=0.5;exitY=1;exitDx=0;exitDy=0;entryX=0.5;entryY=0;entryDx=0;entryDy=0;" edge="1" parent="1" source="GwqZMUHpEMJSWZDbbbEn-77" target="GwqZMUHpEMJSWZDbbbEn-78">
          <mxGeometry relative="1" as="geometry" />
        </mxCell>
        <mxCell id="GwqZMUHpEMJSWZDbbbEn-77" value="ptr-&amp;gt;next = ptr-&amp;gt;next-&amp;gt;next" style="rounded=0;whiteSpace=wrap;html=1;" vertex="1" parent="1">
          <mxGeometry x="470" y="576" width="160" height="30" as="geometry" />
        </mxCell>
        <mxCell id="GwqZMUHpEMJSWZDbbbEn-85" style="edgeStyle=orthogonalEdgeStyle;rounded=0;orthogonalLoop=1;jettySize=auto;html=1;exitX=0.5;exitY=1;exitDx=0;exitDy=0;entryX=0.763;entryY=0.966;entryDx=0;entryDy=0;entryPerimeter=0;" edge="1" parent="1" source="GwqZMUHpEMJSWZDbbbEn-78" target="GwqZMUHpEMJSWZDbbbEn-60">
          <mxGeometry relative="1" as="geometry" />
        </mxCell>
        <mxCell id="GwqZMUHpEMJSWZDbbbEn-78" value="Free Allocated Memory &lt;br&gt;to Target Node" style="rounded=0;whiteSpace=wrap;html=1;" vertex="1" parent="1">
          <mxGeometry x="480" y="620" width="140" height="52" as="geometry" />
        </mxCell>
        <mxCell id="GwqZMUHpEMJSWZDbbbEn-92" value="Terminate" style="ellipse;whiteSpace=wrap;html=1;" vertex="1" parent="1">
          <mxGeometry x="580" y="270" width="120" height="30" as="geometry" />
        </mxCell>
        <mxCell id="GwqZMUHpEMJSWZDbbbEn-98" style="edgeStyle=orthogonalEdgeStyle;rounded=0;orthogonalLoop=1;jettySize=auto;html=1;exitX=0;exitY=0.5;exitDx=0;exitDy=0;" edge="1" parent="1" source="GwqZMUHpEMJSWZDbbbEn-96">
          <mxGeometry relative="1" as="geometry">
            <mxPoint x="990" y="545" as="targetPoint" />
          </mxGeometry>
        </mxCell>
        <mxCell id="GwqZMUHpEMJSWZDbbbEn-96" value="Input &lt;br&gt;Information" style="shape=parallelogram;perimeter=parallelogramPerimeter;whiteSpace=wrap;html=1;fixedSize=1;" vertex="1" parent="1">
          <mxGeometry x="1030" y="522.5" width="120" height="45" as="geometry" />
        </mxCell>
        <mxCell id="GwqZMUHpEMJSWZDbbbEn-100" style="edgeStyle=orthogonalEdgeStyle;rounded=0;orthogonalLoop=1;jettySize=auto;html=1;exitX=0;exitY=0.5;exitDx=0;exitDy=0;entryX=1;entryY=0.5;entryDx=0;entryDy=0;" edge="1" parent="1" source="GwqZMUHpEMJSWZDbbbEn-99" target="GwqZMUHpEMJSWZDbbbEn-75">
          <mxGeometry relative="1" as="geometry" />
        </mxCell>
        <mxCell id="GwqZMUHpEMJSWZDbbbEn-99" value="Input &lt;br&gt;Target Number" style="shape=parallelogram;perimeter=parallelogramPerimeter;whiteSpace=wrap;html=1;fixedSize=1;" vertex="1" parent="1">
          <mxGeometry x="660" y="520.5" width="120" height="45" as="geometry" />
        </mxCell>
      </root>
    </mxGraphModel>
  </diagram>
</mxfile>
